<svg width="29" height="32" viewBox="0 0 29 32" fill="none" xmlns="http://www.w3.org/2000/svg">
<path d="M14.3599 31.0864L2.61692 27.9789L0 0H28.7549L26.1353 27.9746L14.3599 31.0864Z" fill="#264DE4"/>
<path d="M24.2028 26.2401L26.423 2.33154H14.7656V28.755L24.2028 26.2401Z" fill="#2965F1"/>
<path d="M6.10832 12.3843L6.4416 15.8153H14.7644V12.3843H6.10832ZM5.43848 5.43994L5.77654 8.87093H14.7644V5.43994H5.43848ZM14.7644 21.295L14.7481 21.299L10.6061 20.2672L10.3413 17.5309H6.60778L7.1288 22.918L14.7473 24.869L14.7644 24.8647V21.295Z" fill="#EBEBEB"/>
<path d="M23.4195 12.3849L24.0916 5.43994H14.7657V8.87121H20.0116L19.6729 12.3849H14.7657V15.8162H19.3501L18.9178 20.2663L14.7656 21.2992V24.869L22.3978 22.9195L22.4537 22.3397L23.3287 13.3063L23.4195 12.3849Z" fill="white"/>
</svg>