<svg width="30" height="30" viewBox="0 0 30 30" fill="none" xmlns="http://www.w3.org/2000/svg">
<path d="M22.9688 0H7.03125C3.148 0 0 3.148 0 7.03125V22.9688C0 26.852 3.148 30 7.03125 30H22.9688C26.852 30 30 26.852 30 22.9688V7.03125C30 3.148 26.852 0 22.9688 0Z" fill="#2396ED"/>
<path d="M16.5454 14.3113H18.9731V12.1147H16.5454V14.3113ZM13.6553 14.3113H16.0829V12.1147H13.6553V14.3113ZM10.8229 14.3113H13.2506V12.1147H10.8229V14.3113ZM7.99043 14.3113H10.3605V12.1147H7.99055L7.99043 14.3113ZM5.10035 14.3113H7.52812V12.1147H5.10035V14.3113ZM7.99055 11.6523H10.3604V9.45586H7.99055V11.6523ZM10.823 11.6523H13.2506V9.45586H10.8229L10.823 11.6523ZM13.6553 11.6523H16.0829V9.45586H13.6553V11.6523ZM13.6553 8.99332H16.0829V6.79688H13.6553V8.99332ZM26.7187 13.3288C26.7187 13.3288 25.6782 12.3461 23.5396 12.6929C23.3084 11.0166 21.5164 10.0339 21.5164 10.0339C21.5164 10.0339 19.8402 12.0571 21.054 14.3114C20.7073 14.4848 20.1292 14.7161 19.2621 14.7161H3.36633C3.07723 15.8143 3.07723 23.0974 11.0541 23.0974C16.7766 23.0974 21.054 20.4386 23.0771 15.583C26.0829 15.8142 26.7187 13.3288 26.7187 13.3288Z" fill="white"/>
</svg>
