<svg width="23" height="30" viewBox="0 0 23 30" fill="none" xmlns="http://www.w3.org/2000/svg">
<path d="M5.74963 30C8.93198 30 11.4993 27.7674 11.4993 25V20H5.74963C2.56728 20 0 22.2326 0 25C0 27.7674 2.56728 30 5.74963 30Z" fill="#0ACF83"/>
<path d="M0 15C0 12.2326 2.56728 10 5.74963 10H11.4993V20H5.74963C2.56728 20 0 17.7674 0 15Z" fill="#A259FF"/>
<path d="M0 5C0 2.23256 2.56728 0 5.74963 0H11.4993V10H5.74963C2.56728 10 0 7.76744 0 5Z" fill="#F24E1E"/>
<path d="M11.5 0H17.2496C20.432 0 22.9993 2.23256 22.9993 5C22.9993 7.76744 20.432 10 17.2496 10H11.5V0Z" fill="#FF7262"/>
<path d="M22.9993 15C22.9993 17.7674 20.432 20 17.2496 20C14.0673 20 11.5 17.7674 11.5 15C11.5 12.2326 14.0673 10 17.2496 10C20.432 10 22.9993 12.2326 22.9993 15Z" fill="#1ABCFE"/>
</svg>
