<svg width="30" height="30" viewBox="0 0 30 30" fill="none" xmlns="http://www.w3.org/2000/svg">
<g clip-path="url(#clip0_1640_6)">
<path d="M0 1.00453V2.32875C0.266342 2.329 0.521704 2.43491 0.710037 2.62324C0.898369 2.81158 1.00428 3.06694 1.00453 3.33328C1.00428 3.59962 0.898369 3.85499 0.710037 4.04332C0.521704 4.23165 0.266342 4.33756 0 4.33781L0 5.66203C0.266302 5.66228 0.521628 5.76816 0.709954 5.95644C0.89828 6.14472 1.00422 6.40003 1.00453 6.66633C1.00428 6.93267 0.898369 7.18803 0.710037 7.37636C0.521704 7.5647 0.266342 7.67061 0 7.67086V8.99508C0.266423 8.99533 0.521856 9.10131 0.710202 9.28974C0.898548 9.47817 1.00441 9.73365 1.00453 10.0001C1.00441 10.2665 0.898548 10.522 0.710202 10.7104C0.521856 10.8989 0.266423 11.0048 0 11.0051L0 12.3293C0.266302 12.3295 0.521628 12.4354 0.709954 12.6237C0.89828 12.812 1.00422 13.0673 1.00453 13.3336C1.00428 13.5999 0.898369 13.8553 0.710037 14.0436C0.521704 14.232 0.266342 14.3379 0 14.3381L0 15.6623C0.266302 15.6626 0.521628 15.7685 0.709954 15.9568C0.89828 16.145 1.00422 16.4003 1.00453 16.6666C1.00435 16.933 0.898459 17.1884 0.710119 17.3768C0.52178 17.5652 0.266383 17.6712 0 17.6714L0 18.9956C0.266302 18.9959 0.521628 19.1018 0.709954 19.29C0.89828 19.4783 1.00422 19.7336 1.00453 19.9999C1.00428 20.2663 0.898369 20.5216 0.710037 20.71C0.521704 20.8983 0.266342 21.0042 0 21.0045L0 22.3287C0.266302 22.3289 0.521628 22.4348 0.709954 22.6231C0.89828 22.8114 1.00422 23.0667 1.00453 23.333C1.00428 23.5993 0.898369 23.8547 0.710037 24.043C0.521704 24.2313 0.266342 24.3373 0 24.3375L0 25.6617C0.266302 25.662 0.521628 25.7678 0.709954 25.9561C0.89828 26.1444 1.00422 26.3997 1.00453 26.666C1.00435 26.9324 0.898459 27.1878 0.710119 27.3762C0.52178 27.5646 0.266383 27.6705 0 27.6708L0 28.9957C0.266282 28.9961 0.521592 29.1018 0.710156 29.2898C0.897912 29.4786 1.00375 29.7338 1.00477 30H2.32898C2.32929 29.7337 2.43524 29.4784 2.62356 29.2901C2.81189 29.1018 3.06721 28.996 3.33352 28.9957C3.59974 28.9961 3.85494 29.102 4.04317 29.2903C4.23139 29.4785 4.33727 29.7338 4.33758 30H5.66203C5.66234 29.7337 5.76828 29.4784 5.95661 29.2901C6.14493 29.1018 6.40026 28.996 6.66656 28.9957C6.93282 28.996 7.18809 29.1019 7.37636 29.2902C7.56464 29.4785 7.67055 29.7337 7.67086 30H8.99508C8.99539 29.7337 9.10133 29.4784 9.28966 29.2901C9.47798 29.1018 9.73331 28.996 9.99961 28.9957C10.2659 28.996 10.5212 29.1018 10.7096 29.2901C10.8979 29.4784 11.0038 29.7337 11.0041 30H12.3284C12.3287 29.7337 12.4346 29.4784 12.6229 29.2901C12.8113 29.1018 13.0666 28.996 13.3329 28.9957C13.5992 28.996 13.8545 29.1018 14.0428 29.2901C14.2312 29.4784 14.3371 29.7337 14.3374 30H15.6616C15.662 29.7337 15.7679 29.4784 15.9562 29.2901C16.1445 29.1018 16.3999 28.996 16.6662 28.9957C16.9325 28.996 17.1878 29.1018 17.3761 29.2901C17.5645 29.4784 17.6704 29.7337 17.6707 30H18.9949C18.9952 29.7337 19.1012 29.4784 19.2895 29.2901C19.4778 29.1018 19.7332 28.996 19.9995 28.9957C20.2657 28.996 20.521 29.1019 20.7093 29.2902C20.8975 29.4785 21.0034 29.7337 21.0037 30H22.3282C22.3285 29.7337 22.4345 29.4784 22.6228 29.2901C22.8111 29.1018 23.0664 28.996 23.3327 28.9957C23.599 28.996 23.8543 29.1019 24.0425 29.2902C24.2308 29.4785 24.3367 29.7337 24.337 30H25.6615C25.6618 29.7337 25.7677 29.4784 25.9561 29.2901C26.1444 29.1018 26.3997 28.996 26.666 28.9957C26.9323 28.996 27.1875 29.1019 27.3758 29.2902C27.5641 29.4785 27.67 29.7337 27.6703 30H28.9955C28.9959 29.7337 29.1017 29.4784 29.2898 29.2898C29.4784 29.1018 29.7337 28.9961 30 28.9957V27.6715C29.7336 27.6712 29.4782 27.5653 29.2899 27.3769C29.1015 27.1885 28.9957 26.9331 28.9955 26.6667C28.9958 26.4005 29.1018 26.1452 29.2901 25.957C29.4784 25.7688 29.7337 25.6629 30 25.6627V24.3384C29.7336 24.3382 29.4782 24.2322 29.2899 24.0439C29.1015 23.8555 28.9957 23.6001 28.9955 23.3337C28.9958 23.0674 29.1017 22.8121 29.29 22.6238C29.4784 22.4355 29.7337 22.3296 30 22.3294V21.0052C29.7337 21.0049 29.4783 20.899 29.29 20.7107C29.1016 20.5223 28.9957 20.267 28.9955 20.0006C28.9957 19.7343 29.1016 19.4789 29.29 19.2906C29.4783 19.1023 29.7337 18.9963 30 18.9961V17.6719C29.7336 17.6716 29.4782 17.5657 29.2899 17.3773C29.1015 17.1889 28.9957 16.9335 28.9955 16.6671C28.9959 16.4009 29.1019 16.1457 29.2902 15.9575C29.4785 15.7693 29.7338 15.6635 30 15.6633V14.3391C29.7336 14.3388 29.4782 14.2329 29.2899 14.0445C29.1015 13.8561 28.9957 13.6007 28.9955 13.3343C28.9958 13.068 29.1017 12.8127 29.29 12.6244C29.4784 12.4361 29.7337 12.3302 30 12.33V11.0058C29.7336 11.0055 29.4781 10.8996 29.2898 10.7111C29.1015 10.5227 28.9956 10.2672 28.9955 10.0008C28.9957 9.7344 29.1015 9.47898 29.2899 9.29059C29.4782 9.10221 29.7336 8.99626 30 8.99602V7.67156C29.7337 7.67131 29.4783 7.5654 29.29 7.37707C29.1016 7.18874 28.9957 6.93337 28.9955 6.66703C28.9957 6.40069 29.1016 6.14533 29.29 5.95699C29.4783 5.76866 29.7337 5.66275 30 5.6625V4.33828C29.7337 4.33803 29.4783 4.23212 29.29 4.04379C29.1016 3.85545 28.9957 3.60009 28.9955 3.33375C28.9958 3.06749 29.1018 2.81225 29.2901 2.62402C29.4784 2.43578 29.7337 2.32994 30 2.32969V1.00453C29.7339 1.00371 29.4787 0.898123 29.2898 0.710625C29.1021 0.521696 28.9963 0.266376 28.9955 0L27.671 0C27.6708 0.266342 27.5649 0.521704 27.3765 0.710037C27.1882 0.898369 26.9328 1.00428 26.6665 1.00453C26.4002 1.00422 26.1449 0.89828 25.9566 0.709954C25.7683 0.521628 25.6624 0.266302 25.6622 0L24.338 0C24.3377 0.266342 24.2318 0.521704 24.0435 0.710037C23.8551 0.898369 23.5998 1.00428 23.3334 1.00453C23.0671 1.00428 22.8117 0.898369 22.6234 0.710037C22.4351 0.521704 22.3292 0.266342 22.3289 0L21.0047 0C21.0044 0.266342 20.8985 0.521704 20.7102 0.710037C20.5219 0.898369 20.2665 1.00428 20.0002 1.00453C19.7338 1.00428 19.4785 0.898369 19.2901 0.710037C19.1018 0.521704 18.9959 0.266342 18.9956 0L17.6714 0C17.6712 0.266342 17.5652 0.521704 17.3769 0.710037C17.1886 0.898369 16.9332 1.00428 16.6669 1.00453C16.4005 1.00428 16.1452 0.898369 15.9568 0.710037C15.7685 0.521704 15.6626 0.266342 15.6623 0L14.3381 0C14.3379 0.266342 14.232 0.521704 14.0436 0.710037C13.8553 0.898369 13.5999 1.00428 13.3336 1.00453C13.0673 1.00422 12.812 0.89828 12.6237 0.709954C12.4354 0.521628 12.3295 0.266302 12.3293 0L11.0048 0C11.0046 0.266342 10.8987 0.521704 10.7103 0.710037C10.522 0.898369 10.2667 1.00428 10.0003 1.00453C9.73401 1.00422 9.47871 0.89828 9.29043 0.709954C9.10215 0.521628 8.99626 0.266302 8.99602 0L7.6718 0C7.67155 0.266342 7.56563 0.521704 7.3773 0.710037C7.18897 0.898369 6.93361 1.00428 6.66727 1.00453C6.40088 1.00435 6.14546 0.898459 5.95708 0.710119C5.76869 0.52178 5.66275 0.266383 5.6625 0L4.33828 0C4.33803 0.266342 4.23212 0.521704 4.04379 0.710037C3.85545 0.898369 3.60009 1.00428 3.33375 1.00453C3.06745 1.00422 2.81215 0.89828 2.62386 0.709954C2.43558 0.521628 2.3297 0.266302 2.32945 0L1.00453 0C1.00371 0.266376 0.89794 0.521696 0.710156 0.710625C0.521266 0.898123 0.266147 1.00371 0 1.00453Z" fill="url(#paint0_linear_1640_6)"/>
<path d="M25.5558 12.0041H10.5855L11.367 8.34878H20.4912L21.3277 4.41479H8.21367L4.08398 23.8904H8.04633L9.85969 15.3803H19.3634L11.1054 23.5553L12.5562 26.1221C13.2258 25.6759 14.314 25.6199 15.0673 25.6199C16.407 25.6199 17.718 26.0666 19.0849 26.0666C20.3384 26.0666 21.6213 25.9829 23.7143 24.9784L24.4455 21.5464C23.0224 22.1324 20.9166 22.6904 19.0849 22.6904C18.3321 22.6904 17.6344 22.5231 16.909 22.4115L24.9138 14.627L25.5558 12.0041Z" fill="white"/>
</g>
<defs>
<linearGradient id="paint0_linear_1640_6" x1="14.9993" y1="3.64308" x2="14.9993" y2="26.8183" gradientUnits="userSpaceOnUse">
<stop stop-color="#BF0000"/>
<stop offset="1" stop-color="#8F0000"/>
</linearGradient>
<clipPath id="clip0_1640_6">
<rect width="30" height="30" fill="white"/>
</clipPath>
</defs>
</svg>
