<svg width="39" height="39" viewBox="0 0 39 39" fill="none" xmlns="http://www.w3.org/2000/svg">
<g clip-path="url(#clip0_1638_2)" filter="url(#filter0_d_1638_2)">
<path d="M34.4154 14.119L20.8805 0.584854C20.1015 -0.194626 18.8373 -0.194626 18.0573 0.584854L15.2467 3.39544L18.8121 6.9608C19.6406 6.68083 20.5907 6.86865 21.2511 7.5291C21.9147 8.19378 22.1012 9.15199 21.8145 9.98318L25.2505 13.4193C26.0818 13.133 27.041 13.3182 27.7049 13.9833C28.6329 14.9108 28.6329 16.4142 27.7049 17.3424C26.7768 18.2707 25.2734 18.2707 24.3447 17.3424C23.6467 16.6437 23.4743 15.6186 23.8276 14.7588L20.6233 11.5544L20.6229 19.987C20.8552 20.1018 21.0674 20.2535 21.2511 20.4362C22.1791 21.3638 22.1791 22.8673 21.2511 23.7962C20.323 24.724 18.8188 24.724 17.892 23.7962C16.9641 22.8673 16.9641 21.3639 17.892 20.4364C18.1145 20.214 18.3787 20.0378 18.6695 19.918V11.4068C18.3783 11.2878 18.1138 11.1115 17.892 10.8884C17.1889 10.1863 17.0199 9.15466 17.3801 8.29138L13.8655 4.77639L4.58488 14.0564C3.80504 14.8366 3.80504 16.101 4.58488 16.8806L18.12 30.415C18.8993 31.1946 20.1632 31.1946 20.9434 30.415L34.4152 16.9434C35.1948 16.1636 35.195 14.8985 34.4154 14.119Z" fill="#DE4C36"/>
</g>
<defs>
<filter id="filter0_d_1638_2" x="0" y="0" width="39" height="39" filterUnits="userSpaceOnUse" color-interpolation-filters="sRGB">
<feFlood flood-opacity="0" result="BackgroundImageFix"/>
<feColorMatrix in="SourceAlpha" type="matrix" values="0 0 0 0 0 0 0 0 0 0 0 0 0 0 0 0 0 0 127 0" result="hardAlpha"/>
<feOffset dy="4"/>
<feGaussianBlur stdDeviation="2"/>
<feComposite in2="hardAlpha" operator="out"/>
<feColorMatrix type="matrix" values="0 0 0 0 0 0 0 0 0 0 0 0 0 0 0 0 0 0 0.25 0"/>
<feBlend mode="normal" in2="BackgroundImageFix" result="effect1_dropShadow_1638_2"/>
<feBlend mode="normal" in="SourceGraphic" in2="effect1_dropShadow_1638_2" result="shape"/>
</filter>
<clipPath id="clip0_1638_2">
<rect width="31" height="31" fill="white" transform="translate(4)"/>
</clipPath>
</defs>
</svg>
