<svg width="29" height="28" viewBox="0 0 29 28" fill="none" xmlns="http://www.w3.org/2000/svg">
<path d="M24.086 13.9996C23.3741 14.0032 22.6762 14.1987 22.066 14.5656L19.207 11.7066L21.5 9.41357C21.875 9.03852 22.0856 8.5299 22.0856 7.99957C22.0856 7.46924 21.875 6.96063 21.5 6.58557L15.5 0.585573C15.125 0.210631 14.6164 0 14.086 0C13.5557 0 13.0471 0.210631 12.672 0.585573L6.67204 6.58557C6.2971 6.96063 6.08646 7.46924 6.08646 7.99957C6.08646 8.5299 6.2971 9.03852 6.67204 9.41357L8.96504 11.7066L6.10604 14.5656C5.25892 14.0629 4.25744 13.8869 3.28968 14.0704C2.32193 14.2539 1.45446 14.7845 0.850182 15.5623C0.245906 16.3402 -0.0536054 17.3119 0.00789214 18.295C0.0693897 19.2781 0.487666 20.2049 1.18417 20.9014C1.88068 21.5979 2.8075 22.0162 3.79059 22.0777C4.77367 22.1392 5.7454 21.8397 6.52327 21.2354C7.30115 20.6312 7.83167 19.7637 8.0152 18.7959C8.19874 17.8282 8.02266 16.8267 7.52004 15.9796L10.379 13.1206L12.672 15.4136C12.796 15.5344 12.9352 15.6386 13.086 15.7236V19.9996H10.086V27.9996H18.086V19.9996H15.086V15.7226C15.2368 15.6379 15.376 15.534 15.5 15.4136L17.793 13.1206L20.652 15.9796C20.2092 16.7393 20.0297 17.624 20.1416 18.4962C20.2536 19.3684 20.6505 20.1792 21.2708 20.8025C21.8912 21.4257 22.7 21.8266 23.5717 21.9427C24.4434 22.0587 25.3289 21.8835 26.0907 21.4443C26.8525 21.005 27.4478 20.3264 27.7841 19.5138C28.1203 18.7013 28.1787 17.8005 27.95 16.9513C27.7214 16.1022 27.2185 15.3525 26.5198 14.8187C25.821 14.2848 24.9654 13.9969 24.086 13.9996ZM6.08604 17.9996C6.08604 18.3951 5.96874 18.7818 5.74898 19.1107C5.52921 19.4396 5.21686 19.696 4.8514 19.8473C4.48595 19.9987 4.08382 20.0383 3.69586 19.9611C3.30789 19.884 2.95153 19.6935 2.67182 19.4138C2.39212 19.1341 2.20164 18.7777 2.12447 18.3898C2.0473 18.0018 2.0869 17.5997 2.23828 17.2342C2.38965 16.8688 2.646 16.5564 2.9749 16.3366C3.30379 16.1169 3.69047 15.9996 4.08604 15.9996C4.61647 15.9996 5.12518 16.2103 5.50025 16.5854C5.87532 16.9604 6.08604 17.4691 6.08604 17.9996ZM16.086 21.9996V25.9996H12.086V21.9996H16.086ZM14.086 13.9996L8.08604 7.99957L14.086 1.99957L20.086 7.99957L14.086 13.9996ZM24.086 19.9996C23.6905 19.9996 23.3038 19.8823 22.9749 19.6625C22.646 19.4427 22.3897 19.1304 22.2383 18.7649C22.0869 18.3995 22.0473 17.9974 22.1245 17.6094C22.2016 17.2214 22.3921 16.8651 22.6718 16.5854C22.9515 16.3057 23.3079 16.1152 23.6959 16.038C24.0838 15.9608 24.486 16.0004 24.8514 16.1518C25.2169 16.3032 25.5292 16.5595 25.749 16.8884C25.9687 17.2173 26.086 17.604 26.086 17.9996C26.086 18.53 25.8753 19.0387 25.5002 19.4138C25.1252 19.7889 24.6165 19.9996 24.086 19.9996Z" fill="#3100BD"/>
</svg>
