<svg width="31" height="28" viewBox="0 0 31 28" fill="none" xmlns="http://www.w3.org/2000/svg">
<path d="M23.339 0H7.52678C3.67404 0 0.550781 2.85901 0.550781 6.38578V20.8602C0.550781 24.387 3.67404 27.246 7.52678 27.246H23.339C27.1918 27.246 30.315 24.387 30.315 20.8602V6.38578C30.315 2.85901 27.1918 0 23.339 0Z" fill="#F0DB4F"/>
<path d="M8.37902 22.7689L10.6567 21.5071C11.0962 22.2202 11.4959 22.8237 12.4547 22.8237C13.3738 22.8237 13.9533 22.4946 13.9533 21.2145V12.5088H16.7504V21.2507C16.7504 23.9026 15.0523 25.1097 12.5746 25.1097C10.3371 25.1097 9.03825 24.0489 8.37891 22.7687M18.2697 22.4945L20.5471 21.2875C21.1467 22.1837 21.9259 22.8421 23.3044 22.8421C24.4635 22.8421 25.2024 22.3117 25.2024 21.5801C25.2024 20.7022 24.4432 20.3913 23.1645 19.8793L22.4654 19.6048C20.4474 18.8185 19.1087 17.8309 19.1087 15.7459C19.1087 13.8255 20.7071 12.3623 23.2046 12.3623C24.9828 12.3623 26.2615 12.9294 27.1805 14.4108L25.0027 15.691C24.5231 14.9046 24.0039 14.5937 23.2046 14.5937C22.3854 14.5937 21.8659 15.0692 21.8659 15.691C21.8659 16.4591 22.3854 16.7701 23.5841 17.2457L24.2834 17.52C26.6609 18.4529 27.9996 19.4037 27.9996 21.5435C27.9996 23.8481 26.0217 25.1099 23.3644 25.1099C20.7671 25.1099 19.0888 23.976 18.2697 22.4945Z" fill="#323330"/>
</svg>
