<svg width="30" height="30" viewBox="0 0 30 30" fill="none" xmlns="http://www.w3.org/2000/svg">
<g clip-path="url(#clip0_1636_46)">
<path d="M22.9688 0H7.03125C3.148 0 0 3.148 0 7.03125V22.9688C0 26.852 3.148 30 7.03125 30H22.9688C26.852 30 30 26.852 30 22.9688V7.03125C30 3.148 26.852 0 22.9688 0Z" fill="#255CFF"/>
<mask id="mask0_1636_46" style="mask-type:luminance" maskUnits="userSpaceOnUse" x="4" y="4" width="22" height="22">
<path d="M4.45312 4.45312H25.5469V25.5469H4.45312V4.45312Z" fill="white"/>
</mask>
<g mask="url(#mask0_1636_46)">
<path fill-rule="evenodd" clip-rule="evenodd" d="M23.8833 20.884C22.7361 20.8521 21.846 20.9696 21.1001 21.2834C20.8853 21.3697 20.5407 21.3697 20.5123 21.64C20.6272 21.7535 20.641 21.9391 20.7417 22.0964C20.9136 22.3817 21.2152 22.7661 21.4876 22.9656L22.4056 23.6216C22.965 23.9634 23.5962 24.1632 24.1413 24.5054C24.457 24.7051 24.7724 24.9617 25.0881 25.1758C25.2489 25.2899 25.3463 25.4756 25.5473 25.5465V25.5034C25.447 25.3755 25.418 25.1902 25.3181 25.047L24.8872 24.6338C24.4715 24.0779 23.9547 23.5927 23.3952 23.194C22.9361 22.8802 21.9323 22.4526 21.7457 21.9254L21.7175 21.8934C22.0326 21.8615 22.4056 21.7506 22.7071 21.665C23.1952 21.5372 23.6396 21.5653 24.1413 21.4371L24.8303 21.2374V21.1095C24.572 20.853 24.3856 20.5107 24.1133 20.2686C23.3818 19.6413 22.5779 19.0281 21.7457 18.5149C21.3011 18.2299 20.7271 18.0441 20.2538 17.8023C20.0812 17.7166 19.7947 17.6738 19.6943 17.5313C19.4355 17.2182 19.2924 16.8043 19.1059 16.4334L17.9297 13.9528C17.6716 13.3967 17.5134 12.8407 17.1983 12.3275C15.7204 9.90372 14.1134 8.43548 11.6459 6.99524C11.1154 6.69583 10.4842 6.56704 9.8131 6.41048L8.73732 6.35306C8.5074 6.25333 8.27806 5.98227 8.0772 5.85384C7.25947 5.34056 5.15056 4.22868 4.54751 5.69411C4.16021 6.62071 5.12161 7.53302 5.44798 8.00376C5.69232 8.33165 6.00743 8.7022 6.18005 9.07298C6.2765 9.3152 6.30872 9.57208 6.40939 9.82872C6.63861 10.4559 6.854 11.1548 7.15529 11.7396C7.31607 12.039 7.48493 12.3531 7.68579 12.6238C7.80064 12.7835 8.00161 12.8519 8.04439 13.1084C7.84341 13.3938 7.82958 13.8211 7.71474 14.178C7.19806 15.7891 7.39904 17.785 8.13052 18.9712C8.36044 19.3275 8.9022 20.1119 9.63732 19.8123C10.2829 19.5556 10.1389 18.7431 10.3253 18.0301C10.3687 17.8592 10.3399 17.7451 10.4256 17.6307V17.6627L11.014 18.8459C11.4588 19.5445 12.2337 20.2718 12.879 20.7568C13.223 21.0134 13.4957 21.4557 13.9259 21.6123V21.5692H13.8977C13.8114 21.4413 13.6822 21.3838 13.5674 21.284C13.3093 21.0275 13.0224 20.7137 12.8214 20.4287C12.2192 19.6304 11.6887 18.7462 11.215 17.8339C10.9852 17.392 10.7842 16.9072 10.5984 16.4653C10.5115 16.2941 10.5115 16.0371 10.3685 15.9521C10.1529 16.2652 9.83794 16.5369 9.67939 16.9216C9.40669 17.5345 9.37845 18.2902 9.27814 19.0745C9.22025 19.0888 9.24591 19.0745 9.22025 19.1063C8.76169 18.9927 8.60349 18.5216 8.43158 18.1228C8.00126 17.1105 7.92919 15.4852 8.3022 14.3161C8.40251 14.0167 8.83341 13.0756 8.66138 12.7905C8.57466 12.5196 8.28837 12.363 8.13017 12.1489C7.94372 11.878 7.74345 11.536 7.61419 11.2366C7.27013 10.4377 7.0981 9.55415 6.72474 8.75575C6.55212 8.38497 6.25118 7.99989 6.00708 7.65806C5.73439 7.27298 5.4338 7.00192 5.21841 6.54595C5.14669 6.38622 5.04638 6.13251 5.16111 5.96118C5.18947 5.84716 5.24724 5.80145 5.3615 5.77591C5.54783 5.61606 6.07915 5.81868 6.2656 5.90364C6.79611 6.11774 7.24083 6.3172 7.68556 6.61626C7.88654 6.75876 8.10193 7.02981 8.36009 7.10142H8.66173C9.12087 7.20102 9.63697 7.13329 10.0668 7.26114C10.8274 7.50395 11.5157 7.85997 12.1331 8.24528C14.0122 9.42864 15.562 11.111 16.6088 13.1216C16.7808 13.4495 16.8526 13.7489 17.0108 14.0911C17.3124 14.79 17.6854 15.5026 17.986 16.1873C18.2876 16.8574 18.5744 17.5422 19.0047 18.0982C19.2201 18.3976 20.0805 18.5541 20.4677 18.7111C20.7548 18.8389 21.1992 18.954 21.458 19.1106C21.9454 19.41 22.4333 19.7522 22.892 20.08C23.1213 20.2507 23.839 20.6073 23.8817 20.8917L23.8833 20.884ZM9.25329 8.49454C9.05514 8.49284 8.8576 8.51679 8.6656 8.56579V8.59778H8.69384C8.80868 8.82595 9.00966 8.98286 9.15298 9.18255L9.48322 9.86692L9.51158 9.83505C9.71243 9.69255 9.8131 9.46438 9.8131 9.12255C9.72697 9.02282 9.71279 8.92274 9.64107 8.82302C9.55493 8.68052 9.36849 8.60891 9.25329 8.49524V8.49454Z" fill="white"/>
</g>
</g>
<defs>
<clipPath id="clip0_1636_46">
<rect width="30" height="30" fill="white"/>
</clipPath>
</defs>
</svg>
