<svg width="30" height="30" viewBox="0 0 30 30" fill="none" xmlns="http://www.w3.org/2000/svg">
<g clip-path="url(#clip0_1635_30)">
<path d="M22.9688 0H7.03125C3.148 0 0 3.148 0 7.03125V22.9688C0 26.852 3.148 30 7.03125 30H22.9688C26.852 30 30 26.852 30 22.9688V7.03125C30 3.148 26.852 0 22.9688 0Z" fill="#242938"/>
<path d="M14.0482 3.64642C14.6246 3.31654 15.3753 3.31501 15.9512 3.64642C18.8483 5.28353 21.7463 6.91795 24.643 8.55599C25.1879 8.86291 25.5522 9.46923 25.5467 10.097V19.946C25.5508 20.5998 25.1504 21.2207 24.5756 21.5206C21.688 23.1486 18.8018 24.7786 15.9146 26.4067C15.3264 26.743 14.5606 26.7171 13.9906 26.3531C13.125 25.8513 12.2578 25.3519 11.392 24.8506C11.215 24.7451 11.0156 24.6612 10.8907 24.4896C11.0012 24.3408 11.1986 24.3223 11.3591 24.2572C11.7203 24.1423 12.0523 23.9578 12.3842 23.7789C12.4682 23.7215 12.5707 23.7435 12.6512 23.7948C13.3914 24.2193 14.1253 24.6561 14.868 25.0765C15.0264 25.168 15.1869 25.0465 15.3223 24.971C18.1559 23.3694 20.993 21.774 23.8263 20.172C23.9313 20.1215 23.9893 20.01 23.9807 19.8951C23.9827 16.646 23.9812 13.3965 23.9818 10.1474C23.9937 10.0171 23.9183 9.89709 23.8003 9.84365C20.9227 8.22306 18.0465 6.60013 15.1694 4.97919C15.1196 4.94495 15.0605 4.92657 15 4.92646C14.9396 4.92636 14.8805 4.94453 14.8305 4.97861C11.9533 6.60013 9.07777 8.2247 6.20058 9.84505C6.08304 9.89861 6.00417 10.0166 6.01812 10.1474C6.01871 13.3965 6.01812 16.646 6.01812 19.8955C6.01309 19.9517 6.02541 20.008 6.05341 20.0569C6.08141 20.1058 6.12373 20.1449 6.17468 20.169C6.94238 20.6044 7.71113 21.0367 8.47941 21.4706C8.9123 21.7035 9.44363 21.842 9.92058 21.6635C10.3413 21.5126 10.6362 21.0831 10.6283 20.6364C10.6323 17.4063 10.6263 14.1758 10.6312 10.9461C10.6207 10.8028 10.7567 10.6844 10.8962 10.6979C11.2651 10.6954 11.6344 10.6929 12.0034 10.6989C12.1573 10.6954 12.2633 10.8498 12.2443 10.9942C12.2428 14.2447 12.2483 17.4953 12.2418 20.7457C12.2428 21.6121 11.8869 22.5547 11.0855 22.9786C10.0985 23.4899 8.87832 23.3815 7.90308 22.8912C7.05886 22.4698 6.25308 21.9724 5.42386 21.521C4.84753 21.2228 4.4491 20.5995 4.4532 19.9461V10.097C4.4471 9.45623 4.82609 8.83888 5.38777 8.53642C8.27492 6.90716 11.1616 5.2765 14.0482 3.64642Z" fill="#81CD39"/>
<path d="M16.5666 10.4689C17.8258 10.3878 19.1738 10.4208 20.3069 11.0412C21.1843 11.5165 21.6706 12.5143 21.6861 13.4889C21.6616 13.6203 21.5241 13.6928 21.3986 13.6838C21.0334 13.6833 20.6678 13.6889 20.3026 13.6814C20.1475 13.6873 20.0575 13.5445 20.0381 13.4075C19.9331 12.9411 19.6787 12.4792 19.2398 12.2542C18.566 11.917 17.7848 11.934 17.05 11.941C16.5137 11.9694 15.9369 12.0159 15.4824 12.3312C15.1336 12.5702 15.0276 13.0525 15.1521 13.441C15.2695 13.7199 15.5914 13.8099 15.855 13.8929C17.3724 14.2898 18.9805 14.2502 20.469 14.7725C21.0853 14.9854 21.6881 15.3994 21.899 16.0447C22.175 16.9095 22.0541 17.9431 21.4387 18.6373C20.9397 19.2086 20.213 19.5196 19.4882 19.6885C18.524 19.9035 17.5234 19.9091 16.5441 19.8135C15.6234 19.7085 14.6652 19.4667 13.9544 18.8394C13.3466 18.3116 13.0497 17.4891 13.0791 16.6955C13.0862 16.5615 13.2196 16.468 13.3481 16.479C13.7159 16.476 14.0839 16.475 14.4518 16.4796C14.5988 16.469 14.7077 16.596 14.7153 16.7346C14.783 17.1788 14.95 17.6452 15.3376 17.9085C16.0852 18.391 17.0236 18.358 17.8797 18.3714C18.5891 18.34 19.3853 18.3305 19.9641 17.8617C20.2695 17.5942 20.36 17.1468 20.2775 16.762C20.1881 16.437 19.8481 16.2856 19.5562 16.1866C18.0582 15.7128 16.4321 15.8847 14.9486 15.3488C14.3463 15.136 13.7639 14.7336 13.5325 14.1148C13.2097 13.2391 13.3576 12.1558 14.0374 11.4851C14.7002 10.8178 15.6569 10.5608 16.5666 10.4689Z" fill="#81CD39"/>
</g>
<defs>
<clipPath id="clip0_1635_30">
<rect width="30" height="30" fill="white"/>
</clipPath>
</defs>
</svg>
