<svg width="30" height="30" viewBox="0 0 30 30" fill="none" xmlns="http://www.w3.org/2000/svg">
<path fill-rule="evenodd" clip-rule="evenodd" d="M6.46561 0.47077C12.1379 -0.156923 17.8622 -0.156923 23.5345 0.47077C26.6333 0.81614 29.1316 3.25165 29.4955 6.35672C30.1682 12.0988 30.1682 17.8995 29.4955 23.6415C29.1316 26.7466 26.6333 29.1821 23.5361 29.5291C17.8633 30.157 12.1384 30.157 6.46561 29.5291C3.36678 29.1821 0.868462 26.7466 0.504566 23.6431C-0.168189 17.9006 -0.168189 12.0993 0.504566 6.35672C0.868462 3.25165 3.36678 0.81614 6.46561 0.47077ZM22.4656 7.26088C22.5668 7.82292 22.4362 8.36867 21.9141 8.41917L21.0459 8.57556L20.6869 22.1248C19.9232 22.5321 19.2281 22.7569 18.6553 22.7357C17.7301 22.7032 17.5065 22.3855 16.844 21.4406L11.4492 11.7523L11.2044 20.9339L12.9798 21.4292C12.9798 21.4292 12.9505 22.5386 11.5112 22.4881L7.52956 22.5989C7.42186 22.3464 7.55403 21.7322 7.96199 21.6279L9.00636 21.3526L9.32782 9.2158L7.89182 9.04312C7.79065 8.48107 8.10233 7.69259 8.90681 7.65838L13.1773 7.4971L18.7989 17.3157L19.0257 8.81015L17.531 8.57067C17.5042 8.4282 17.5084 8.28164 17.5433 8.14093C17.5783 8.00023 17.6432 7.86869 17.7336 7.75525C17.824 7.64181 17.9378 7.54912 18.0673 7.4835C18.1968 7.41787 18.3389 7.38084 18.484 7.37491L22.4656 7.26088Z" fill="black"/>
</svg>
