<svg width="34" height="22" viewBox="0 0 34 22" fill="none" xmlns="http://www.w3.org/2000/svg">
<path d="M11.2375 15.9743C11.0792 15.0699 10.6437 14.3352 9.58673 13.98C9.17305 13.8414 8.81479 13.5884 8.40705 13.429C7.94388 13.2471 7.4728 13.0738 6.98391 12.9612C6.61377 12.8746 6.26937 13.0201 6.04966 13.3043C5.84183 13.5711 5.99226 13.8223 6.16644 14.0458C6.36239 14.2971 6.58012 14.5362 6.79983 14.7718C7.16402 15.1634 7.55 15.5394 7.9043 15.9362C8.24276 16.3157 8.53175 16.7367 8.48226 17.2392C8.3734 18.3412 7.80335 19.2543 6.88494 19.9976C6.78399 20.0773 6.60585 20.1345 6.47522 20.1241C5.88933 20.0686 5.35689 19.8746 4.92738 19.5159C4.43452 19.1053 4.50974 18.6219 5.09958 18.3221C5.24011 18.2511 5.38658 18.1852 5.51524 18.0986C5.87548 17.8612 5.99622 17.4558 5.80026 17.104C5.70723 16.9342 5.60233 16.7506 5.44794 16.6276C4.69381 16.0263 3.95348 15.406 3.14591 14.8585C1.18828 13.5278 0.182842 11.7674 0.0283877 9.63622C-0.145794 7.26934 0.481656 5.0602 1.90876 3.03813C2.44912 2.27056 3.07854 1.53932 4.04446 1.15992C4.7016 0.901756 5.42208 0.756212 6.12481 0.595075C8.05869 0.149781 10.0102 -0.184623 12.0233 0.113395C13.7572 0.368096 15.026 1.14953 15.6079 2.64135C15.9899 3.61684 16.081 4.62524 15.9622 5.65797C15.7287 7.68697 14.0166 9.50107 11.7838 10.0382C10.8159 10.2704 10.2874 10.1404 9.70549 9.43523C9.28785 8.92756 8.94147 8.37484 8.56738 7.83939C8.51195 7.75969 8.47237 7.66785 8.42486 7.58295C8.37934 7.49805 8.32985 7.41662 8.28235 7.33172C8.42288 8.21191 8.65644 9.05924 9.20472 9.81462C9.50162 10.2253 9.89749 10.5285 10.4774 10.5735C12.6112 10.7416 14.4124 10.1282 15.6911 8.62596C17.1221 6.94522 17.4369 5.01157 17.0232 2.97569C16.942 2.57372 16.8054 2.1804 16.7084 1.78016C16.6431 1.52199 16.7599 1.3314 17.0509 1.2413C17.1855 1.20145 17.324 1.16853 17.4586 1.14427C19.2045 0.815064 20.97 0.705907 22.7494 0.863579C24.7684 1.04031 26.6785 1.52546 28.3867 2.50793C31.0608 4.04827 32.7175 6.24014 33.6181 8.89117C33.7487 9.27582 33.7685 9.69686 33.7804 10.1024C33.7883 10.3727 33.5904 10.4437 33.3549 10.2739C33.0956 10.0885 32.8581 9.87711 32.6344 9.6588C32.4266 9.45261 32.2603 9.21697 32.0584 9.00039C31.902 8.83058 31.7655 8.85658 31.6902 9.06796C31.6427 9.19618 31.6012 9.32266 31.5596 9.45088C31.0925 10.9098 30.3562 12.2405 29.1626 13.3616C28.9964 13.5192 28.8479 13.7531 28.8281 13.9611C28.7767 14.5363 28.739 15.1237 28.8024 15.6972C28.933 16.9292 29.1369 18.1558 29.2952 19.3861C29.3843 20.0809 29.129 20.4898 28.3828 20.7307C27.8582 20.8987 27.2961 21.0218 26.7419 21.0564C25.8591 21.1101 24.9684 21.072 24.0817 21.072C24.0579 20.2057 24.143 19.3549 23.2127 18.8905C23.3929 18.2477 23.6007 17.6378 23.7254 17.0141C23.8283 16.496 23.7412 15.9866 23.3256 15.5621C22.9356 15.1618 22.4467 15.0527 21.9993 15.2814C20.6514 15.9693 19.25 15.9727 17.8229 15.5222C17.1677 15.3143 16.7105 15.4321 16.3482 15.9554C15.9583 16.5185 15.794 17.1509 15.8375 17.7903C15.893 18.596 16.0533 19.3931 16.176 20.1953C16.2433 20.644 16.1859 20.7601 15.6772 20.8745C14.547 21.1257 13.397 21.1534 12.241 21.072C12.1797 21.0668 12.1183 21.0443 12.0787 21.0356C12.0213 20.1953 12.1223 19.322 10.9782 18.8749C11.4849 17.9341 11.4156 16.9586 11.2415 15.9831L11.2375 15.9743ZM4.40477 12.6771C4.57301 12.5385 4.7076 12.3219 4.75511 12.1226C4.87387 11.6236 4.44633 10.9548 3.9515 10.7694C3.68825 10.6689 3.45864 10.7053 3.27259 10.889C2.81932 11.3377 2.37199 11.7917 1.92657 12.2475C1.85136 12.3254 1.78406 12.4173 1.73062 12.5091C1.55248 12.8088 1.65738 13.0271 2.03741 13.1086C2.26702 13.1588 2.50454 13.1692 2.74008 13.1987C3.35367 13.1467 3.94747 13.0566 4.4047 12.6789L4.40477 12.6771ZM4.45623 7.6887C4.45425 7.33178 4.1138 7.03376 3.712 7.03203C3.29832 7.03029 2.94204 7.3543 2.95589 7.71123C2.97371 8.06989 3.31415 8.35751 3.72189 8.35058C4.1336 8.34538 4.46217 8.05083 4.45821 7.69044L4.45623 7.6887Z" fill="#DBDBDB"/>
</svg>
