<svg width="27" height="24" viewBox="0 0 27 24" fill="none" xmlns="http://www.w3.org/2000/svg">
<path d="M3.41809 11.2111C6.65105 11.9233 10.0611 12.2665 13.4869 12.2244C16.9128 12.2662 20.3229 11.9227 23.5557 11.2103C26.079 10.5928 26.9738 9.90654 26.9738 9.51159V6.49219C26.0914 6.86258 25.145 7.16916 24.1527 7.40608C20.7325 8.17435 17.1193 8.54897 13.4869 8.51192C9.85494 8.54766 6.24228 8.17367 2.82111 7.40778C1.82823 7.171 0.881717 6.86381 0 6.49219V9.50735C0 9.90993 0.897504 10.5928 3.41809 11.2111ZM3.41809 16.906C4.56006 17.1792 5.73769 17.3898 6.93772 17.5353C9.09569 17.7967 11.2891 17.9255 13.4869 17.9201C15.6847 17.9258 17.8781 17.7972 20.0361 17.5362C21.2361 17.3907 22.4138 17.1801 23.5557 16.9068C26.079 16.2893 26.9738 15.6031 26.9738 15.2081V12.3289C26.2446 12.6042 25.4782 12.8387 24.6834 13.0296C21.0903 13.8276 17.2978 14.2139 13.4869 14.1702C9.67558 14.2126 5.88314 13.8248 2.29046 13.0253C1.49647 12.8332 0.730173 12.5988 0 12.3246V15.2064C0 15.6022 0.897504 16.2859 3.41809 16.906ZM13.4869 23.7338C20.9323 23.7338 26.9738 22.2525 26.9738 20.4265V18.0169C26.3105 18.2678 25.6155 18.4842 24.8959 18.6641L24.6834 18.7176C21.091 19.5179 17.2985 19.9066 13.4869 19.8651C9.67512 19.9084 5.88215 19.5197 2.29046 18.7176L2.07793 18.6641C1.35834 18.4842 0.66338 18.2678 0 18.0169V20.4265C0 22.2525 6.04157 23.7338 13.4869 23.7338Z" fill="#FFDA44"/>
<path d="M13.4869 6.59864C20.9355 6.59864 26.9738 5.12148 26.9738 3.29932C26.9738 1.47716 20.9355 0 13.4869 0C6.0383 0 0 1.47716 0 3.29932C0 5.12148 6.0383 6.59864 13.4869 6.59864Z" fill="#FFDA44"/>
</svg>
