<svg width="30" height="30" viewBox="0 0 30 30" fill="none" xmlns="http://www.w3.org/2000/svg">
<g clip-path="url(#clip0_1635_24)">
<path d="M22.9688 0H7.03125C3.148 0 0 3.148 0 7.03125V22.9688C0 26.852 3.148 30 7.03125 30H22.9688C26.852 30 30 26.852 30 22.9688V7.03125C30 3.148 26.852 0 22.9688 0Z" fill="#242938"/>
<path d="M21.3281 5.85938H25.5469L15 24.0527L4.45312 5.85938H12.5215L15 10.0781L17.4258 5.85938H21.3281Z" fill="#41B883"/>
<path d="M4.45312 5.85938L15 24.0527L25.5469 5.85938H21.3281L15 16.7754L8.61914 5.85938H4.45312Z" fill="#41B883"/>
<path d="M8.61914 5.85938L15 16.8281L21.3281 5.85938H17.4258L15 10.0781L12.5215 5.85938H8.61914Z" fill="white"/>
</g>
<defs>
<clipPath id="clip0_1635_24">
<rect width="30" height="30" fill="white"/>
</clipPath>
</defs>
</svg>
