<svg width="30" height="30" viewBox="0 0 30 30" fill="none" xmlns="http://www.w3.org/2000/svg">
<path d="M22.9688 0H7.03125C3.148 0 0 3.148 0 7.03125V22.9688C0 26.852 3.148 30 7.03125 30H22.9688C26.852 30 30 26.852 30 22.9688V7.03125C30 3.148 26.852 0 22.9688 0Z" fill="#0073AA"/>
<path d="M4.94727 14.9994C4.94727 18.9785 7.25973 22.4172 10.6129 24.0468L5.81762 10.9082C5.24292 12.1955 4.94634 13.5896 4.94727 14.9994ZM21.7864 14.4921C21.7864 13.2498 21.3402 12.3894 20.9574 11.7196C20.4478 10.8916 19.9701 10.1903 19.9701 9.3623C19.9701 8.43815 20.671 7.578 21.6582 7.578C21.7029 7.578 21.745 7.58351 21.7885 7.58597C20 5.94745 17.6172 4.94702 15 4.94702C11.4881 4.94702 8.39821 6.7489 6.60078 9.47819C6.83656 9.48522 7.05887 9.49026 7.24766 9.49026C8.29918 9.49026 9.9268 9.36253 9.9268 9.36253C10.4687 9.33065 10.5327 10.1266 9.99125 10.1907C9.99125 10.1907 9.44668 10.2548 8.84071 10.2866L12.5014 21.1754L14.7014 14.5774L13.1352 10.2862C12.5939 10.2544 12.0811 10.1903 12.0811 10.1903C11.5393 10.1586 11.6028 9.3303 12.1446 9.3623C12.1446 9.3623 13.8047 9.48979 14.7924 9.48979C15.8438 9.48979 17.4716 9.3623 17.4716 9.3623C18.0139 9.3303 18.0775 10.1262 17.536 10.1903C17.536 10.1903 16.9903 10.2544 16.3855 10.2862L20.0184 21.0925L21.0211 17.7419C21.4557 16.3514 21.7864 15.3527 21.7864 14.4921Z" fill="white"/>
<path d="M15.1763 15.8786L12.1602 24.6431C13.0823 24.9146 14.0386 25.0526 15 25.0526C16.1369 25.053 17.2657 24.8603 18.3382 24.4828C18.3103 24.4388 18.2864 24.3924 18.2667 24.3442L15.1763 15.8786ZM23.8208 10.1763C23.8664 10.5189 23.8891 10.8642 23.8885 11.2099C23.8885 12.23 23.698 13.3768 23.1241 14.8107L20.0534 23.6887C23.0421 21.9459 25.0523 18.7081 25.0523 14.9995C25.0524 13.2516 24.6061 11.6081 23.8208 10.1763Z" fill="white"/>
<path d="M14.9998 3.28125C8.53828 3.28125 3.28125 8.53793 3.28125 14.9993C3.28125 21.4615 8.53828 26.7179 14.9998 26.7179C21.4609 26.7179 26.7188 21.4615 26.7188 14.9993C26.7185 8.53793 21.4609 3.28125 14.9998 3.28125ZM14.9998 26.1809C8.83453 26.1809 3.81855 21.1648 3.81855 14.9993C3.81855 8.83418 8.83441 3.81855 14.9998 3.81855C21.1646 3.81855 26.1803 8.83418 26.1803 14.9993C26.1803 21.1648 21.1646 26.1809 14.9998 26.1809Z" fill="white"/>
</svg>
